{
  "accessors": [
    {
      "bufferView": 2,
      "componentType": 5126,
      "count": 13545,
      "max": [
        66.575492858886719,
        67.219894409179688,
        130.69244384765625
      ],
      "min": [
        -81.513198852539062,
        -96.74365234375,
        -20.418365478515625
      ],
      "type": "VEC3"
    },
    {
      "bufferView": 2,
      "byteOffset": 162540,
      "componentType": 5126,
      "count": 13545,
      "max": [
        0.99996751546859741,
        0.9995570182800293,
        1
      ],
      "min": [
        -0.99999982118606567,
        -0.99992144107818604,
        -1
      ],
      "type": "VEC3"
    },
    {
      "bufferView": 3,
      "componentType": 5126,
      "count": 13545,
      "max": [
        1,
        0.9999995231628418,
        0.99999654293060303,
        1
      ],
      "min": [
        -1,
        -0.99996399879455566,
        -0.99998784065246582,
        -1
      ],
      "type": "VEC4"
    },
    {
      "bufferView": 1,
      "componentType": 5126,
      "count": 13545,
      "max": [
        0.99758350849151611,
        0.99635201692581177
      ],
      "min": [
        0.0040473337285220623,
        0.0053947353735566139
      ],
      "type": "VEC2"
    },
    {
      "bufferView": 0,
      "componentType": 5125,
      "count": 53625,
      "max": [
        13544
      ],
      "min": [
        0
      ],
      "type": "SCALAR"
    }
  ],
  "asset": {
    "extras": {
      "author": "olmopotums (https://sketchfab.com/olmopotums)",
      "license": "CC-BY-4.0 (http://creativecommons.org/licenses/by/4.0/)",
      "source": "https://sketchfab.com/models/c1516dc3d0ea420b9246334a94e5681e",
      "title": "Combat Vehicle Crewman (CVC) Helmet, Vietnam Era"
    },
    "generator": "Sketchfab-3.19.6",
    "version": "2.0"
  },
  "bufferViews": [
    {
      "buffer": 0,
      "byteLength": 214500,
      "byteOffset": 0,
      "name": "floatBufferViews",
      "target": 34963
    },
    {
      "buffer": 0,
      "byteLength": 108360,
      "byteOffset": 214500,
      "byteStride": 8,
      "name": "floatBufferViews",
      "target": 34962
    },
    {
      "buffer": 0,
      "byteLength": 325080,
      "byteOffset": 322860,
      "byteStride": 12,
      "name": "floatBufferViews",
      "target": 34962
    },
    {
      "buffer": 0,
      "byteLength": 216720,
      "byteOffset": 647940,
      "byteStride": 16,
      "name": "floatBufferViews",
      "target": 34962
    }
  ],
  "buffers": [
    {
      "byteLength": 864660,
      "uri": "scene.bin"
    }
  ],
  "images": [
    {
      "uri": "textures/NormalTest_01_metallicRoughness.png"
    },
    {
      "uri": "textures/NormalTest_01_normal.png"
    },
    {
      "uri": "textures/NormalTest_01_baseColor.png"
    }
  ],
  "materials": [
    {
      "doubleSided": true,
      "emissiveFactor": [
        0,
        0,
        0
      ],
      "name": "NormalTest_01",
      "normalTexture": {
        "index": 1,
        "scale": 1,
        "texCoord": 0
      },
      "occlusionTexture": {
        "index": 0,
        "strength": 1,
        "texCoord": 0
      },
      "pbrMetallicRoughness": {
        "baseColorFactor": [
          1,
          1,
          1,
          1
        ],
        "baseColorTexture": {
          "index": 2,
          "texCoord": 0
        },
        "metallicFactor": 1,
        "metallicRoughnessTexture": {
          "index": 0,
          "texCoord": 0
        },
        "roughnessFactor": 1
      }
    }
  ],
  "meshes": [
    {
      "name": "LO_Helmet_Assembled_NormalTest_01_0",
      "primitives": [
        {
          "attributes": {
            "NORMAL": 1,
            "POSITION": 0,
            "TANGENT": 2,
            "TEXCOORD_0": 3
          },
          "indices": 4,
          "material": 0,
          "mode": 4
        }
      ]
    }
  ],
  "nodes": [
    {
      "children": [
        1
      ],
      "name": "RootNode (gltf orientation matrix)",
      "rotation": [
        -0.70710678118654746,
        -0,
        -0,
        0.70710678118654757
      ]
    },
    {
      "children": [
        2
      ],
      "matrix": [
        -1,
        0,
        0,
        0,
        0,
        1,
        0,
        0,
        0,
        0,
        -1,
        0,
        -22.329534530639648,
        0,
        -170.10757446289062,
        1
      ],
      "name": "RootNode (model correction matrix)"
    },
    {
      "children": [
        3
      ],
      "matrix": [
        1,
        0,
        0,
        0,
        0,
        -1,
        0,
        0,
        0,
        0,
        -1,
        0,
        0,
        0,
        0,
        1
      ],
      "name": "3d2af532c6ce4c4f82bbc749ed443375.fbx"
    },
    {
      "children": [
        4
      ],
      "name": "RootNode"
    },
    {
      "children": [
        5
      ],
      "matrix": [
        1,
        0,
        0,
        0,
        0,
        0.99619470005450705,
        0.087155720313188453,
        0,
        0,
        -0.087155720313188453,
        0.99619470005450705,
        0,
        -3.6959569454193115,
        -2.8130075931549072,
        114.22456359863281,
        1
      ],
      "name": "LO_Helmet_Assembled"
    },
    {
      "children": [
        6
      ],
      "matrix": [
        1,
        0,
        0,
        0,
        0,
        1,
        -7.4505806838929922e-09,
        0,
        -0,
        7.4505806838929922e-09,
        1,
        0,
        0,
        -1.15116739273071,
        -83.027427673339801,
        1
      ],
      "name": ""
    },
    {
      "mesh": 0,
      "name": "LO_Helmet_Assembled_NormalTest_01_0"
    }
  ],
  "samplers": [
    {
      "magFilter": 9729,
      "minFilter": 9987,
      "wrapS": 10497,
      "wrapT": 10497
    }
  ],
  "scene": 0,
  "scenes": [
    {
      "name": "OSG_Scene",
      "nodes": [
        0
      ]
    }
  ],
  "textures": [
    {
      "sampler": 0,
      "source": 0
    },
    {
      "sampler": 0,
      "source": 1
    },
    {
      "sampler": 0,
      "source": 2
    }
  ]
}

